<svg width="271" height="77" viewBox="0 0 271 77" fill="none" xmlns="http://www.w3.org/2000/svg">
<path fill-rule="evenodd" clip-rule="evenodd" d="M7.02357 12.9655C0.791772 19.7039 -1.53293 29.5703 1.02128 38.4419C2.17933 42.4644 5.00225 47.2841 7.5304 49.5547C8.57489 50.4928 9.15487 50.5617 9.91869 49.8376C10.5864 49.2045 10.2785 48.3685 8.67625 46.4643C5.85166 43.1073 3.88102 38.8335 3.23386 34.661C2.84298 32.1393 3.08826 27.3809 3.73303 24.9787C4.67831 21.4577 6.82395 17.5341 9.18977 15.0007C10.3478 13.7607 10.5271 12.96 9.82187 12.1807C9.0841 11.3655 8.3002 11.5854 7.02357 12.9655ZM43.4715 12.0827C42.5363 12.7375 42.7768 13.6067 44.4003 15.4404C46.9999 18.3761 48.9024 22.1814 49.7669 26.1741C50.3194 28.7261 50.3213 33.409 49.7707 35.9759C48.945 39.8268 46.9459 43.7616 44.2669 46.809C42.6472 48.6515 42.536 49.4883 43.821 50.1646C44.6013 50.5756 45.3147 50.1919 46.6262 48.6568C52.9639 41.2385 54.8887 31.4331 51.7935 22.3332C50.5788 18.7618 47.8495 14.3564 45.6616 12.4353C44.7333 11.6203 44.2439 11.5414 43.4715 12.0827ZM12.6912 17.4861C11.7026 18.3541 10.016 20.6616 9.22755 22.2249C6.90045 26.8387 6.53276 32.4723 8.23637 37.4141C9.04824 39.7701 10.0373 41.4967 11.8066 43.6478C12.9085 44.9873 13.1698 45.18 13.8848 45.18C14.4591 45.18 14.8136 45.0218 15.0749 44.6486C15.6551 43.8204 15.5323 43.393 14.3116 41.9916C11.6259 38.9081 10.427 35.924 10.2474 31.8754C10.0471 27.3563 11.2147 23.8484 14.1253 20.2253C14.8524 19.3202 15.4472 18.3977 15.4472 18.1751C15.4472 17.6683 14.4727 16.7309 13.9458 16.7309C13.7287 16.7309 13.1643 17.0706 12.6912 17.4861ZM38.451 17.1031C37.5421 17.7397 37.7477 18.7326 39.1039 20.254C40.5362 21.8613 41.7521 24.1202 42.4832 26.5327C43.1762 28.8196 43.2324 32.7855 42.6051 35.1391C42.0115 37.3663 40.7224 39.8569 39.2208 41.6772C37.8605 43.3263 37.6224 44.1315 38.2952 44.8045C39.0528 45.5621 39.9376 45.2737 41.2448 43.8434C42.9058 42.026 44.198 39.7661 45.1285 37.0517C45.8708 34.8862 45.9071 34.6137 45.9097 31.1945C45.9129 27.2841 45.6372 25.8131 44.3833 23.0473C43.0983 20.2134 40.3753 16.7309 39.4441 16.7309C39.1902 16.7309 38.7432 16.8985 38.451 17.1031ZM17.1467 22.4989C14.2956 25.466 13.1581 30.6243 14.4361 34.7906C14.9709 36.5341 16.3652 38.9121 17.419 39.878C18.2524 40.6416 19.4783 40.5256 19.9754 39.6358C20.3165 39.0247 20.2959 38.9413 19.5599 37.9623C17.3805 35.0643 16.73 33.1326 16.9504 30.2117C17.1049 28.167 17.7838 26.4894 19.191 24.6773C19.7616 23.9424 20.2285 23.2132 20.2285 23.0566C20.2285 22.9 20.0055 22.4886 19.7329 22.1422C19.0153 21.2297 18.267 21.3329 17.1467 22.4989ZM33.6697 21.8845C32.8621 22.4501 32.9833 23.4346 34.0115 24.6572C37.1938 28.4419 37.1216 33.8929 33.8399 37.6307C32.6754 38.9568 33.073 40.3987 34.6032 40.3987C35.3979 40.3987 36.2595 39.5971 37.4505 37.7495C40.3779 33.2089 39.7743 26.3694 36.1077 22.5326C35.0637 21.44 34.5131 21.2935 33.6697 21.8845ZM25.488 26.8141C23.6367 27.3391 22.1585 29.2007 22.1463 31.0229C22.1392 32.0764 22.7297 33.4272 23.5822 34.3081L24.2817 35.0311L24.347 49.6891L24.4122 64.3471L25.083 64.924C25.97 65.6869 27.1577 65.6869 28.0446 64.924L28.7155 64.3471L28.7807 49.6879L28.846 35.0287L29.6629 34.1874C30.6244 33.1974 30.9866 32.3459 30.9866 31.075C30.9866 28.2016 28.2029 26.0445 25.488 26.8141Z" fill="#2CACAD"/>
<path d="M71.5892 58.7717C69.7029 58.7717 68.031 58.5573 66.5734 58.1286C65.1586 57.6999 64.0226 56.8211 63.1652 55.4921C62.3506 54.1202 61.9434 52.0624 61.9434 49.3187V27.905C61.9434 25.5042 62.3506 23.7037 63.1652 22.5033C64.0226 21.3029 65.1801 20.5098 66.6377 20.124C68.1381 19.6953 69.8101 19.4809 71.6535 19.4809C73.5398 19.4809 75.1903 19.6953 76.605 20.124C78.0198 20.5527 79.1344 21.3672 79.9489 22.5676C80.7635 23.768 81.1707 25.5471 81.1707 27.905V34.5928H77.1195V27.8407C77.1195 26.1687 76.8837 24.9255 76.4121 24.1109C75.9405 23.2535 75.2761 22.6962 74.4186 22.439C73.6041 22.1818 72.661 22.0532 71.5892 22.0532C70.5174 22.0532 69.5529 22.1818 68.6954 22.439C67.8809 22.6962 67.2379 23.2535 66.7663 24.1109C66.3376 24.9255 66.1232 26.1687 66.1232 27.8407V50.4119C66.1232 52.1268 66.3376 53.4129 66.7663 54.2703C67.2379 55.0848 67.8809 55.6207 68.6954 55.8779C69.5529 56.1351 70.5174 56.2637 71.5892 56.2637C72.7038 56.2637 73.6684 56.1351 74.483 55.8779C75.2975 55.6207 75.9405 55.0848 76.4121 54.2703C76.8837 53.4129 77.1195 52.1268 77.1195 50.4119V44.6887H81.1707V49.2544C81.1707 52.041 80.7635 54.1202 79.9489 55.4921C79.1344 56.8211 78.0198 57.6999 76.605 58.1286C75.1903 58.5573 73.5184 58.7717 71.5892 58.7717ZM96.8879 58.6431C94.8302 58.6431 93.1153 58.4287 91.7435 58C90.3716 57.5284 89.3213 56.6925 88.5925 55.4921C87.9066 54.2917 87.5636 52.6198 87.5636 50.4762V32.7922C87.5636 30.0056 88.3996 28.1408 90.0715 27.1976C91.7435 26.2116 94.037 25.7186 96.9522 25.7186C99.9103 25.7186 102.225 26.2116 103.897 27.1976C105.569 28.1836 106.405 30.0485 106.405 32.7922V50.4762C106.405 52.6626 106.041 54.356 105.312 55.5564C104.626 56.7139 103.576 57.5284 102.161 58C100.746 58.4287 98.9886 58.6431 96.8879 58.6431ZM96.8879 56.1994C98.7742 56.1994 100.168 55.8779 101.068 55.2349C101.968 54.5918 102.418 53.4129 102.418 51.698V32.7279C102.418 30.9273 101.947 29.727 101.003 29.1268C100.06 28.5266 98.6885 28.2265 96.8879 28.2265C95.1302 28.2265 93.7798 28.5266 92.8367 29.1268C91.8935 29.727 91.422 30.9273 91.422 32.7279V51.698C91.422 53.4129 91.8721 54.5918 92.7724 55.2349C93.7155 55.8779 95.0874 56.1994 96.8879 56.1994ZM113.701 58V26.1687H117.238L128.877 49.9618V26.1687H132.414V58H128.877L117.302 35.1715V58H113.701ZM140.265 58V26.1687H156.341V28.9982H144.445V39.8658H153.962V42.9525H144.445V55.1706H156.341V58H140.265ZM170.615 58.6431C168.557 58.6431 166.821 58.4287 165.406 58C164.034 57.5284 162.984 56.6925 162.255 55.4921C161.569 54.2917 161.226 52.6198 161.226 50.4762V32.7922C161.226 30.0056 162.062 28.1408 163.734 27.1976C165.406 26.2116 167.721 25.7186 170.679 25.7186C173.68 25.7186 175.995 26.2116 177.624 27.1976C179.253 28.1836 180.068 30.0485 180.068 32.7922V38.644H176.081V32.7279C176.081 30.8845 175.609 29.6841 174.666 29.1268C173.766 28.5266 172.437 28.2265 170.679 28.2265C168.921 28.2265 167.571 28.5266 166.628 29.1268C165.728 29.6841 165.277 30.8845 165.277 32.7279V51.698C165.277 53.5415 165.728 54.7633 166.628 55.3635C167.571 55.9208 168.921 56.1994 170.679 56.1994C172.437 56.1994 173.766 55.9208 174.666 55.3635C175.609 54.7633 176.081 53.5415 176.081 51.698V46.5536H180.068V50.4762C180.068 52.6626 179.725 54.356 179.039 55.5564C178.353 56.7568 177.303 57.5713 175.888 58C174.516 58.4287 172.758 58.6431 170.615 58.6431ZM190.009 58V28.9982H183.772V26.1687H200.427V28.9982H193.996V58H190.009ZM200.482 58L208.713 26.1687H213.858L222.025 58H217.652L215.658 50.9264H206.527L204.662 58H200.482ZM206.72 48.8043H215.594L211.157 30.1557L206.72 48.8043ZM235.838 58L244.069 26.1687H249.213L257.38 58H253.007L251.014 50.9264H241.883L240.018 58H235.838ZM242.075 48.8043H250.95L246.513 30.1557L242.075 48.8043ZM262.282 58V26.1687H266.269V58H262.282ZM262.025 22.8891L265.691 16.973H269.678L264.34 22.8891H262.025Z" fill="black"/>
</svg>
